<?xml version="1.0" encoding="UTF-8"?>
<svg id="Layer_1" data-name="Layer 1" xmlns="http://www.w3.org/2000/svg" viewBox="0 0 511.93 511.72">
  <defs>
    <style>
      .cls-1 {
        stroke: #040202;
        stroke-width: 2.03px;
      }

      .cls-1, .cls-2 {
        fill: none;
        stroke-linecap: round;
        stroke-linejoin: round;
      }

      .cls-3 {
        fill: #040002;
      }

      .cls-4 {
        fill: #621b05;
      }

      .cls-5 {
        fill: #ad2f16;
      }

      .cls-6 {
        fill: #942b12;
      }

      .cls-7 {
        fill: #f27a64;
      }

      .cls-8 {
        fill: #7c240a;
      }

      .cls-9 {
        fill: #ee644e;
      }

      .cls-2 {
        stroke: #050202;
        stroke-width: 5.08px;
      }

      .cls-10 {
        fill: #e9472d;
      }
    </style>
  </defs>
  <g>
    <path class="cls-10" d="M347.94,422.81c-59.33,32.17-126.59,31.74-185.87,0l-43.46,45.9c-.33.69-.81,1.41-1.38,2.09,2.93,2.04,5.72,4.04,8.78,5.84,3.94-20.49,29.88-1.04,42.15,3.05,65.69,21.9,118.96,20.49,183.84-3.05,25.77-13.2,14.39-11.49,41.14-6.1l-45.2-47.74Z"/>
    <path class="cls-4" d="M127.03,36.64c.33-.22.68-.4,1.02-.61.35,6.15,8.53,8.68,13.2,13,3.12,2.88,20.77,22.29,22.85,22.35,55.92-31.14,126.86-28.52,183.84-1.02,1.73-.39,20.35-21.33,23.87-24.38s11.63-4.83,11.17-10.36c3.79,2.15,7.9,3.84,10.93,7.11l.84.2c-8.99,5.66-40.05,45.05-46.3,46.52-59.27-31.25-125.43-31.35-184.86-.2-3.03-.62-42.74-40.44-44.28-43.27-3.25-5.97,3.78-6.75,7.72-9.34Z"/>
    <path class="cls-4" d="M393.14,470.54c-77.94,53.88-185.9,53.8-267.13,6.09,3.94-20.49,29.88-1.04,42.15,3.05,65.69,21.9,118.96,20.49,183.84-3.05,25.81-13.23,14.42-11.47,41.14-6.09Z"/>
    <path class="cls-9" d="M382.98,35.63c.46,5.53-7.7,7.35-11.17,10.36-65.12-35.14-156.74-40.71-222.94-5.08-3.02,1.62-8.7,3.73-7.62,8.13-4.68-4.32-12.85-6.85-13.2-13-.33.21-.69.39-1.02.61,76.27-49.58,178.66-44.87,255.95-1.02Z"/>
    <g>
      <path class="cls-10" d="M70.15,164.82c-29.55,53.93-27.91,127.6,0,182.32l-25.39,24.88c-.26-1.63-9.58-18.22-11.17-21.84-5.35-12.15-4.67-33.07-22.35-19.81-2.49-8.2-4.46-15.94-6.09-24.38,6.97-.46,2.06-6.15,2.03-6.6C0,246.47,8.19,192.52,30.54,144c6.22-1.89,12.31,2.46,15.24-4.57,3.78,6.7,20.98,16.55,24.38,25.39Z"/>
      <path class="cls-8" d="M87.41,165.84c-29.86,53.59-31.88,129.83,2.45,182.4-13.78,13.78-27.56,27.56-41.34,41.34-9.97,2.35-3-12.68-3.77-17.56l25.39-24.88c-27.91-54.67-29.55-128.42,0-182.32,2.85-1.28,13.53.86,17.27,1.02Z"/>
      <path class="cls-7" d="M47.8,123.18c-1.79-1.75-2.92-4.38-5.48-5.36-.2.21-.4.41-.61.6l-.71,1.14C2.03,172.8-7.25,241.88,5.14,306c6.97-.46,2.06-6.15,2.04-6.6C0,246.48,8.19,192.51,30.54,144c6.22-1.89,12.31,2.46,15.24-4.57-2.41-4.27-2.09-11.25-4.06-15.74l6.09-.51Z"/>
      <path class="cls-5" d="M42.97,395.14l5.56-5.56c-9.97,2.35-3-12.68-3.77-17.56-.26-1.63-9.58-18.22-11.17-21.84-5.35-12.15-4.67-33.07-22.35-19.81,6.88,22.67,16.52,44.76,30.68,63.9.4.23.75.53,1.05.86Z"/>
      <path class="cls-5" d="M47.8,123.18c8.1,9.37,39.79,32.25,39.61,42.66-3.74-.15-14.42-2.3-17.27-1.02-3.4-8.84-20.6-18.7-24.38-25.39-2.41-4.27-2.09-11.25-4.06-15.74l6.09-.51Z"/>
    </g>
    <g>
      <path class="cls-9" d="M491.66,159.74c20.77,49.52,25.19,108.63,11.38,160.48-5.02.51-4.4-.35-4.27-4.57.8-26.04,9.32-48.41,7.11-79.22,1.21-17.73-26.46-77.05-14.83-77.7.15.36.46.66.61,1.02Z"/>
      <g>
        <path class="cls-5" d="M491.66,159.74c-.15-.36-.46-.66-.61-1.02-11.64.57,16.08,60.18,14.83,77.7,2.21,30.81-6.31,53.19-7.11,79.22-.13,4.22-.75,5.08,4.27,4.57-7.01,26.1-18.43,52.82-33.72,75.16l-46.32-46.72c30.8-57.75,32.18-126.91-1.42-183.84l46.72-45.91c5.15-.45,20.48,35.22,23.36,40.83Z"/>
        <path class="cls-10" d="M463.73,140.45c44.55,62.47,42.15,166.42,1.02,231.58l-23.87-23.87c28.72-57.08,29.72-127.54-1.02-183.84,3.56-2.38,22.2-23.62,23.87-23.87Z"/>
      </g>
    </g>
    <path class="cls-10" d="M371.81,45.99c-3.52,3.05-22.14,23.99-23.87,24.38-56.98-27.51-127.92-30.12-183.84,1.02-2.08-.06-19.73-19.46-22.85-22.35-1.08-4.39,4.6-6.5,7.62-8.13,66.2-35.64,157.82-30.06,222.94,5.08Z"/>
    <g>
      <polygon class="cls-3" points="421.07 24.66 486.58 90.17 322.04 256.74 487.6 422.3 421.07 487.81 254.49 322.25 88.94 487.81 24.44 421.28 188.98 255.73 24.44 89.15 90.97 25.67 255.51 190.21 421.07 24.66"/>
      <g>
        <path class="cls-9" d="M472.36,97.79c-13.9-3.37-40.15-43.91-51.29-46.72l-156.42,156.42-15.24,1.02L89.95,51.07c-7.6,4.28-34.7,30.48-40.12,39.61-2.04,2.02-9.68,3.94-10.16,8.13-3-2.6-9.01-6.58-8.13-10.66l59.42-56.37,164.54,164.54L420.05,31.77l60.43,57.39c.12,1.17-6.59,6.87-8.13,8.63Z"/>
        <path class="cls-4" d="M462.2,423.82l11.17,5.08c-16.41,18.5-35.33,34.83-52.31,52.82l-166.57-165.56-165.56,165.56c-15.99-17.79-36.09-34.6-51.29-52.82,2.85-3.29,10.58-5.03,14.22-3.05,1.43,2.86,34.52,35.81,37.07,35.55l156.42-156.42h20.31l156.42,156.42,40.12-37.58Z"/>
        <path class="cls-9" d="M202.19,254.2l3.05,12.7L49.83,421.28c1.64,1.26,1.44,3.38,2.03,4.57-3.63-1.98-11.37-.25-14.22,3.05-2.1-2.52-7.41-4.46-6.09-8.63,58.96-50.9,108.28-121.69,170.64-166.07Z"/>
        <path class="cls-9" d="M309.85,255.22c.97-.42,3.68.28,5.08,0l165.56,167.08c0,.84-6.18,5.55-7.11,6.6l-11.17-5.08-156.42-156.92c.71-4.11-.3-9.8,4.06-11.68Z"/>
        <path class="cls-8" d="M49.83,90.68l155.4,153.88c-1.31,6-.41,10.64-8.13,10.66L39.68,98.8c.48-4.19,8.12-6.11,10.16-8.13Z"/>
        <path class="cls-6" d="M461.19,90.68c3.01,2.96,6.81,6.32,11.17,7.11-47.69,54.72-107.78,103.99-157.43,157.43-1.39.28-4.11-.42-5.08,0l-3.05-11.68,154.38-152.86Z"/>
        <path class="cls-10" d="M461.19,90.68l-154.38,152.86,3.05,11.68c-4.36,1.88-3.36,7.57-4.06,11.68l156.42,156.92-40.12,37.58-156.42-156.42h-20.31l-156.42,156.42c-5.03-1.98-38.18-34.08-39.1-40.12l155.4-154.38-3.05-12.7c2.61-2.58,2.11-6.44,3.05-9.65L49.83,90.68c5.31-9.02,32.65-35.45,40.12-39.61l159.46,157.43,15.24-1.02L421.07,51.07c4.42-.81,35.08,34.65,40.12,39.61Z"/>
      </g>
    </g>
  </g>
  <path class="cls-2" d="M89.87,348.24c-15.38,15.38-30.75,30.75-46.13,46.13"/>
  <path class="cls-1" d="M394.02,42.94C316.65-8.62,206.6-14.82,127.03,36.64c-3.94,2.6-10.97,3.38-7.72,9.35,1.55,2.83,41.25,42.65,44.28,43.27,59.43-31.15,125.59-31.04,184.86.2,5.77-1.67,37.38-39.54,45.58-46.52h0Z"/>
  <path class="cls-1" d="M394.02,42.94h.29c.82-.12,1.96.08,2.88,0"/>
  <path class="cls-1" d="M469.31,395.38c54.51-79.05,56.78-199.93-1.02-276.47l-46.72,45.91c33.6,56.93,32.22,126.09,1.42,183.84l46.32,46.72Z"/>
</svg>